<?xml version="1.0" encoding="utf-8"?>
<!-- Generator: Adobe Illustrator 23.0.1, SVG Export Plug-In . SVG Version: 6.00 Build 0)  -->
<svg version="1.1" id="Lag_1" xmlns="http://www.w3.org/2000/svg" xmlns:xlink="http://www.w3.org/1999/xlink" x="0px" y="0px"
	 viewBox="0 0 176.86 155.06" style="enable-background:new 0 0 176.86 155.06;" xml:space="preserve">
<style type="text/css">
	.st0{fill:#093380;}
</style>
<path class="st0" d="M94.43,82.83c-15.77,0-28.6-12.83-28.6-28.6h8.87c0,10.88,8.85,19.73,19.73,19.73
	c10.88,0,19.73-8.85,19.73-19.73h8.87C123.02,70,110.19,82.83,94.43,82.83"/>
<path class="st0" d="M150.15,97.78c-7.08,0-24.8,0-26.59,0c6.05-4.06,11.22-9.38,15.11-15.53c1.96-3.1,3.6-6.41,4.88-9.86
	c0.31-0.84,0.6-1.68,0.86-2.53c0.13-0.43,0.26-0.86,0.38-1.29c0.09-0.31,0.04-0.4,0.36-0.52c0.32-0.11,0.64-0.21,0.97-0.31
	c1.88-0.54,3.84-0.71,5.79-0.48c6.33,0.73,11.69,5.52,13.14,11.73c1.47,6.3-1.3,12.99-6.76,16.43
	C155.86,96.96,153.02,97.78,150.15,97.78 M150.15,58.3c-1.18,0-2.35,0.11-3.52,0.28c1.09-13.25-2.88-26.52-11.17-36.94
	c-7.85-9.86-19.19-16.71-31.61-18.97C90.42,0.23,76.32,3.2,65.04,10.9c-5.51,3.76-10.29,8.56-14.02,14.09
	c-0.94,1.39-1.81,2.82-2.61,4.29c-0.39,0.71-1.79,3.61-1.87,3.8c-0.35-0.06-0.71-0.12-1.06-0.18c-3.76-0.59-7.6-0.59-11.37-0.01
	C21.57,34.82,10.65,43.36,5.67,55.03c-5.1,11.95-3.43,26.06,4.28,36.5c7.78,10.54,20.82,16.29,33.85,14.9
	c10.71-1.14,20.44-7.09,26.46-16c-2.37-1.71-4.63-3.46-6.7-5.53c-4.07,6.27-10.6,10.77-17.92,12.31c-6.69,1.41-13.8,0.3-19.74-3.07
	c-5.41-3.07-9.73-7.94-12.14-13.68c-2.5-5.97-2.86-12.77-1.02-18.98c3.72-12.53,16.19-21.27,29.29-20.1
	c3.51,0.31,6.92,1.2,10.1,2.74c3.03-12.66,11.85-23.55,23.58-29.18c11.89-5.7,26.1-5.61,37.92,0.23
	c11.29,5.57,19.83,16.02,22.97,28.22c3.23,12.55,0.59,26.17-7.09,36.61c-7.53,10.24-19.41,16.82-32.1,17.68
	c-0.99,0.07-1.99,0.1-2.98,0.1v8.87h52.28c1.86,0,3.75,0.07,5.61-0.1c6.3-0.56,12.21-3.67,16.29-8.49
	c4.14-4.9,6.18-11.36,5.61-17.76C173.12,68.01,162.48,58.3,150.15,58.3"/>
<g>
	<path class="st0" d="M13.68,123.24c2.23,0,4.13,0.77,5.66,2.26c1.53,1.5,2.3,3.36,2.3,5.56c0,2.2-0.77,4.06-2.3,5.56
		c-1.53,1.5-3.43,2.26-5.66,2.26H9.58v7.66H4.99v-23.3H13.68z M13.68,134.6c1.96,0,3.4-1.53,3.4-3.53c0-2.03-1.43-3.53-3.4-3.53
		H9.58v7.06H13.68z"/>
	<path class="st0" d="M36.65,129.9h4.29v16.65h-4.29v-1.96c-1.3,1.63-3.1,2.43-5.43,2.43c-2.23,0-4.13-0.83-5.73-2.53
		c-1.56-1.7-2.36-3.8-2.36-6.26s0.8-4.53,2.36-6.23c1.6-1.7,3.5-2.56,5.73-2.56c2.33,0,4.13,0.8,5.43,2.43V129.9z M32.02,142.92
		c1.33,0,2.43-0.43,3.3-1.3c0.9-0.9,1.33-2.03,1.33-3.4s-0.43-2.5-1.33-3.36c-0.87-0.9-1.96-1.33-3.3-1.33
		c-1.33,0-2.43,0.43-3.3,1.33c-0.87,0.87-1.3,2-1.3,3.36s0.43,2.5,1.3,3.4C29.59,142.49,30.69,142.92,32.02,142.92z"/>
	<path class="st0" d="M58.61,125.27c0-1.43,1.2-2.66,2.63-2.66c1.46,0,2.66,1.23,2.66,2.66s-1.2,2.63-2.66,2.63
		C59.81,127.9,58.61,126.71,58.61,125.27z M59.11,146.55V129.9h4.29v16.65H59.11z"/>
	<path class="st0" d="M71.4,139.99c0.57,2.1,2.13,3.13,4.69,3.13c1.63,0,2.9-0.57,3.73-1.66l3.46,2c-1.63,2.36-4.06,3.56-7.26,3.56
		c-2.76,0-4.96-0.83-6.63-2.5c-1.66-1.66-2.5-3.76-2.5-6.29c0-2.5,0.83-4.59,2.46-6.26c1.63-1.7,3.76-2.53,6.33-2.53
		c2.43,0,4.46,0.83,6.03,2.53c1.6,1.7,2.4,3.76,2.4,6.26c0,0.57-0.07,1.13-0.17,1.76H71.4z M79.82,136.66
		c-0.5-2.26-2.16-3.36-4.13-3.36c-2.3,0-3.86,1.23-4.36,3.36H79.82z"/>
	<path class="st0" d="M101.52,131.27c1.2,1.23,1.8,2.9,1.8,5.06v10.22h-4.29v-9.69c0-2.23-1.3-3.43-3.3-3.43
		c-2.23,0-3.66,1.37-3.66,4.13v8.99h-4.29V129.9h4.29v1.86c1.03-1.56,2.7-2.33,4.96-2.33C98.86,129.44,100.36,130.03,101.52,131.27z
		"/>
	<path class="st0" d="M116.51,134.03h-3.76v6.92c0,1.8,1.3,1.83,3.76,1.7v3.9c-5.89,0.67-8.06-1.03-8.06-5.59v-6.92h-2.9v-4.13h2.9
		v-3.36l4.29-1.3v4.66h3.76V134.03z"/>
	<path class="st0" d="M54.76,134.03h-3.76v6.92c0,1.8,1.3,1.83,3.76,1.7v3.9c-5.89,0.67-8.06-1.03-8.06-5.59v-6.92h-2.9v-4.13h2.9
		v-3.36l4.29-1.3v4.66h3.76V134.03z"/>
	<path class="st0" d="M119.1,141.25l3.93-2.3c0.9,2.36,2.7,3.56,5.36,3.56c2.56,0,3.73-1.03,3.73-2.46c0-0.83-0.37-1.46-1.1-1.9
		c-0.73-0.47-2.03-0.97-3.93-1.5c-2.1-0.63-3.36-1.13-4.83-2.16c-1.43-1.07-2.2-2.66-2.2-4.79c0-2.1,0.73-3.8,2.23-5.03
		c1.5-1.27,3.33-1.9,5.43-1.9c3.76,0,6.72,1.93,8.32,5.23l-3.86,2.23c-0.93-2-2.43-3-4.46-3c-1.9,0-3.06,0.97-3.06,2.33
		c0,0.73,0.3,1.33,0.9,1.8c0.63,0.43,1.8,0.93,3.53,1.47l1.6,0.53c0.37,0.1,0.87,0.3,1.5,0.57c0.63,0.23,1.13,0.47,1.46,0.7
		c0.7,0.43,1.76,1.27,2.2,2.06c0.5,0.8,0.87,1.96,0.87,3.3c0,2.16-0.8,3.86-2.36,5.13c-1.56,1.27-3.6,1.9-6.09,1.9
		C123.63,147.01,120.4,144.82,119.1,141.25z"/>
	<path class="st0" d="M154.86,146.55h-4.99l-6.06-7.56v7.56h-4.29v-23.3h4.29v13.98l5.73-7.32h5.13l-6.69,8.22L154.86,146.55z"/>
	<path class="st0" d="M167.47,129.9h4.59l-6.06,16.65c-1.73,4.79-4.53,6.89-8.79,6.66v-4c2.3,0.03,3.56-0.93,4.36-3.2l-6.82-16.11
		h4.69l4.33,11.19L167.47,129.9z"/>
</g>
<g>
</g>
<g>
</g>
<g>
</g>
<g>
</g>
<g>
</g>
<g>
</g>
</svg>
